<?xml version="1.0" encoding="UTF-8"?><svg id="Capa_2" xmlns="http://www.w3.org/2000/svg" viewBox="0 0 22.03 22.03"><g id="Capa_1-2"><path id="Trazado_11-2" d="m11.02,0C4.93,0,0,4.93,0,11.02c0,6.08,4.93,11.02,11.02,11.02,6.08,0,11.02-4.93,11.02-11.02h0C22.03,4.93,17.1,0,11.02,0c0,0,0,0,0,0m1.82,16.8l-2.86-3.99-3.73,3.99h-1.69l4.69-5.01-4.69-6.55h4.63l2.68,3.74,3.5-3.74h1.69l-4.46,4.76,4.86,6.79h-4.63Z" fill="#fff"/><path id="Trazado_12-2" d="m6.96,6.46l6.52,9.1h1.61l-6.52-9.1h-1.61Z" fill="#fff"/></g></svg>