<?xml version="1.0" encoding="UTF-8"?><svg id="Capa_2" xmlns="http://www.w3.org/2000/svg" viewBox="0 0 22.03 22.03"><g id="Capa_1-2"><path id="Trazado_5-2" d="m11.02,0C4.93,0,0,4.93,0,11.01c0,6.08,4.93,11.02,11.01,11.02,6.08,0,11.02-4.93,11.02-11.01h0C22.03,4.93,17.1,0,11.02,0h0m3.27,5.92c0,.17-.14.31-.31.31h-1.53c-.68,0-1.22.55-1.22,1.23v2.15h2.57c.27,0,.49.22.49.49,0,.02,0,.04,0,.06l-.18,1.47c-.03.25-.24.43-.49.43h-2.39v6.16c-.25.02-.51.03-.77.03-.56,0-1.13-.05-1.68-.16v-6.03h-1.84c-.17,0-.31-.14-.31-.31v-1.85c0-.17.14-.31.31-.31h1.84v-2.77c0-1.69,1.37-3.07,3.06-3.07h0s2.14,0,2.14,0c.17,0,.31.14.31.31v1.84Z" fill="#fff"/></g></svg>