<?xml version="1.0" encoding="UTF-8"?><svg id="Capa_2" xmlns="http://www.w3.org/2000/svg" viewBox="0 0 22.03 22.03"><g id="Capa_1-2"><path id="Trazado_9-2" d="m11.02,0C4.93,0,0,4.93,0,11.02c0,6.08,4.93,11.02,11.02,11.02s11.02-4.93,11.02-11.02h0C22.03,4.93,17.1,0,11.02,0h0m6.45,13.99c0,.94-.76,1.7-1.7,1.7H6.26c-.94,0-1.7-.76-1.7-1.7h0v-5.94c0-.94.76-1.7,1.7-1.7h9.5c.94,0,1.7.76,1.7,1.7h0v5.94Z" fill="#fff"/><path id="Trazado_10-2" d="m12.54,10.61l-2.64-1.32c-.23-.11-.5-.02-.61.2-.03.06-.05.13-.05.21v2.64c0,.25.21.46.46.46.07,0,.14-.02.2-.05l2.64-1.32c.23-.11.32-.39.2-.62-.04-.09-.12-.16-.2-.2" fill="#fff"/></g></svg>