<?xml version="1.0" encoding="UTF-8"?><svg id="Capa_2" xmlns="http://www.w3.org/2000/svg" viewBox="0 0 22.03 22.03"><g id="Capa_1-2"><path id="Trazado_6-2" d="m11.02,9.02c-1.1,0-1.99.89-1.99,1.99,0,1.1.89,1.99,1.99,1.99,1.1,0,1.99-.89,1.99-1.99h0c0-1.1-.89-1.99-1.99-1.99" fill="#fff"/><path id="Trazado_7-2" d="m13.81,6.23h-5.58c-1.1,0-1.99.89-1.99,1.99v5.58c0,1.1.89,1.99,1.99,1.99h5.58c1.1,0,1.99-.89,1.99-1.99v-5.58c0-1.1-.89-1.99-1.99-1.99m-2.78,7.77c-1.65,0-2.99-1.34-2.99-2.99,0-1.65,1.34-2.99,2.99-2.99,1.65,0,2.99,1.34,2.99,2.99,0,1.65-1.34,2.99-2.99,2.99m3.19-5.58c-.33,0-.6-.27-.6-.6s.27-.6.6-.6c.33,0,.6.27.6.6s-.27.6-.6.6h0" fill="#fff"/><path id="Trazado_8-2" d="m11.02,0C4.93,0,0,4.93,0,11.02s4.93,11.02,11.02,11.02,11.02-4.93,11.02-11.02h0C22.03,4.93,17.1,0,11.02,0c0,0,0,0,0,0m5.78,14.01c0,1.54-1.25,2.79-2.79,2.79h-5.98c-1.54,0-2.79-1.25-2.79-2.79h0v-5.98c0-1.54,1.25-2.79,2.78-2.79,0,0,0,0,0,0h5.98c1.54,0,2.79,1.25,2.79,2.79v5.98Z" fill="#fff"/></g></svg>