<?xml version="1.0" encoding="UTF-8"?>
<svg id="Layer_2" data-name="Layer 2" xmlns="http://www.w3.org/2000/svg" viewBox="0 0 230.96 141.77">
  <defs>
    <style>
      .cls-1 {
        fill: #002b72;
      }

      .cls-1, .cls-2 {
        stroke-width: 0px;
      }

      .cls-2 {
        fill: #000;
      }
    </style>
  </defs>
  <g id="Capa_1" data-name="Capa 1">
    <g>
      <g>
        <path class="cls-1" d="M226.98,50.52l-14.76,3.57-3.51,6.93c-6.15-7.31-15.32-11.67-26.24-11.67-21.39,0-39.54,13.46-46.59,32.56l-4.2-.82c5.46-15.2,17.42-27.29,32.5-32.78l8.67-43.37c.46-2.31-1.63-4.31-3.91-3.76l-14.76,3.57-3.51,6.93c-6.15-7.31-15.32-11.67-26.24-11.67-27.54,0-49.77,22.27-49.77,50.24,0,1.22.06,2.42.16,3.6,0,0,0,0,.01.01l1.74-3.45,16.67-4.03c.58-.14,1.18-.21,1.77-.21,1.64,0,3.2.55,4.48,1.52.17-13.41,11.37-25.06,24.35-25.06,10.28,0,17.11,6.5,17.11,16.23,0,13.44-11.42,25.31-24.58,25.31-6.55,0-11.62-2.64-14.44-7.08l-9.25,46.29,11.69-7.41-2.56,13.37c-3.81,1.93-7.69,4.07-11.62,6.46l-.5,2.5-.65,3.23c32.85-20.22,60.96-27.06,68.82-28.26,0-.68-15.13.08-35.95,7.46-4.85,1.72-9.99,3.77-15.34,6.28l2.81-14.2,19.37-12.27-2.75,13.72c7.29-3.32,23.77-8.44,39.14-7.66,4.62.23,7.12,1.94,7.43,5.07.02.24-.05.46-.22.63-5.16,5.27-21.99,23.61-21.78,38.44.12,8.97,6.46,10.89,6.72,11.04,0,0-2.56-3.68-2.18-8.01,4.24,1.6,8.94,2.5,14.02,2.5,10.52,0,20.2-3.57,28.06-9.57l.81,7.19h16.93l15.91-79.6c.46-2.31-1.63-4.31-3.91-3.76ZM118.33,82.15l-19.27,11.97,3.03-14.84,19.23-12.19-2.99,15.05ZM174.44,113.52c-4.51,0-8.31-1.27-11.16-3.51,4.87-7.07,10.38-12.9,12.18-14.74,1.05-1.07,1.57-2.55,1.42-4.04-.25-2.51-1.88-8.42-11.46-8.9-.93-.05-1.86-.06-2.8-.07,4.52-6.16,11.58-10.29,19.29-10.29,10.28,0,17.11,6.5,17.11,16.23,0,13.44-11.42,25.31-24.58,25.31ZM66.31,88.21c0-9.74-6.84-16.23-17.11-16.23-13.08,0-24.37,11.83-24.37,25.37,0,9.75,6.66,16.18,16.9,16.18,13.17,0,24.58-11.88,24.58-25.31ZM98.18,54.28l-15.91,79.6h-16.93l-.81-7.19c-7.86,6-17.54,9.57-28.06,9.57C15.04,136.26,0,120.96,0,99.59c0-27.97,22.23-50.24,49.77-50.24,10.92,0,20.08,4.36,26.24,11.67l3.51-6.93,14.76-3.57c2.29-.55,4.37,1.45,3.91,3.76Z"/>
        <path class="cls-1" d="M124.45,1c10.28,0,19.33,4.02,25.47,11.31l.97,1.16.68-1.35,3.3-6.52,14.31-3.46c.18-.04.36-.06.53-.06.66,0,1.28.3,1.71.82s.59,1.17.46,1.84l-8.56,42.83c-15.18,5.7-27.03,17.77-32.57,33.19l-.39,1.1,1.14.22,4.2.82.84.16.3-.8c3.44-9.31,9.51-17.25,17.56-22.98,8.22-5.84,17.93-8.93,28.09-8.93s19.33,4.02,25.47,11.31l.97,1.16.68-1.35,3.3-6.52,14.31-3.46c.18-.04.36-.06.53-.06.66,0,1.28.3,1.71.82.43.52.59,1.17.46,1.84l-15.75,78.79h-15.21l-.71-6.3-.2-1.75-1.4,1.07c-8.02,6.13-17.52,9.37-27.45,9.37-4.8,0-9.4-.82-13.67-2.43l-1.24-.47-.11,1.32c-.18,2.05.24,3.95.77,5.45-1.64-1.49-3.25-4.05-3.31-8.4-.2-14.45,16.4-32.53,21.5-37.73.37-.38.55-.9.5-1.43-.26-2.54-1.92-5.64-8.38-5.97-1.06-.05-2.16-.08-3.26-.08-13.87,0-27.49,4.13-34.57,7.06l2.37-11.85.46-2.29-1.97,1.25-19.37,12.27-.36.23-.08.42-2.81,14.2-.38,1.94,1.79-.84c4.89-2.29,10.02-4.39,15.25-6.24,7.34-2.6,13.89-4.35,19.3-5.51-19.45,6.07-39.98,16.72-51.08,23.34l.2-1,.41-2.07c3.56-2.16,7.32-4.24,11.18-6.19l.44-.22.09-.48,2.56-13.37.43-2.27-1.95,1.24-9.72,6.16,8.36-41.79c3.2,3.68,8.04,5.68,13.89,5.68,13.63,0,25.58-12.3,25.58-26.31,0-10.31-7.28-17.23-18.11-17.23-6.54,0-12.82,2.77-17.7,7.81-4.37,4.51-7.08,10.46-7.57,16.54-1.11-.52-2.32-.8-3.57-.8-.67,0-1.35.08-2.01.24l-16.67,4.03-.45.11-.21.41-.02.04c.06-13.15,5.12-25.45,14.27-34.66C99.13,6.09,111.38,1,124.45,1M97.61,96.2l1.97-1.23,19.27-11.97.37-.23.08-.43,2.99-15.05.45-2.29-1.97,1.25-19.23,12.19-.36.23-.08.42-3.03,14.84-.46,2.27M174.44,114.52c13.63,0,25.58-12.3,25.58-26.31,0-10.31-7.28-17.23-18.11-17.23-7.67,0-15.19,4-20.1,10.7l-1.15,1.57,1.95.02c1.03,0,1.9.03,2.76.07,8.49.43,10.23,5.2,10.52,8,.12,1.2-.29,2.38-1.14,3.24-1.62,1.65-7.29,7.61-12.29,14.87l-.53.77.74.58c3.11,2.43,7.18,3.72,11.78,3.72M49.77,50.35c10.28,0,19.33,4.02,25.47,11.31l.97,1.16.68-1.35,3.3-6.52,14.31-3.46c.18-.04.36-.06.53-.06.66,0,1.28.3,1.71.82.43.52.59,1.17.46,1.84l-15.75,78.79h-15.21l-.71-6.3-.2-1.75-1.4,1.07c-8.02,6.13-17.52,9.37-27.45,9.37s-19.16-3.56-25.56-10.03c-6.39-6.45-9.91-15.55-9.91-25.64,0-13.24,5.07-25.64,14.27-34.91,9.18-9.25,21.43-14.34,34.5-14.34M41.72,114.52c13.63,0,25.58-12.3,25.58-26.31,0-10.31-7.28-17.23-18.11-17.23-13.51,0-25.37,12.32-25.37,26.37,0,10.27,7.19,17.18,17.9,17.18M124.45,0C96.91,0,74.68,22.27,74.68,50.24c0,1.22.06,2.42.16,3.6,0,0,0,0,.01.01l1.74-3.45,16.67-4.03c.58-.14,1.18-.21,1.77-.21,1.64,0,3.2.55,4.48,1.52.17-13.41,11.37-25.06,24.35-25.06,10.28,0,17.11,6.5,17.11,16.23,0,13.44-11.42,25.31-24.58,25.31-6.55,0-11.62-2.64-14.44-7.08l-9.25,46.29,11.69-7.41-2.56,13.37c-3.81,1.93-7.69,4.07-11.62,6.46l-.5,2.5-.65,3.23c32.85-20.22,60.96-27.06,68.82-28.26,0-.12-.48-.2-1.39-.2-4.19,0-17.46,1.59-34.56,7.65-4.85,1.72-9.99,3.77-15.34,6.28l2.81-14.2,19.37-12.27-2.75,13.72c6.79-3.09,21.53-7.74,35.93-7.74,1.07,0,2.14.03,3.21.08,4.62.23,7.12,1.94,7.43,5.07.02.24-.05.46-.22.63-5.16,5.27-21.99,23.61-21.78,38.44.12,8.97,6.46,10.89,6.72,11.04,0,0-2.56-3.68-2.18-8.01,4.24,1.6,8.94,2.5,14.02,2.5,10.52,0,20.2-3.57,28.06-9.57l.81,7.19h16.93l15.91-79.6c.41-2.04-1.19-3.85-3.14-3.85-.25,0-.51.03-.77.09l-14.76,3.57-3.51,6.93c-6.15-7.31-15.32-11.67-26.24-11.67-21.39,0-39.54,13.46-46.59,32.56l-4.2-.82c5.46-15.2,17.42-27.29,32.5-32.78l8.67-43.37c.41-2.04-1.19-3.85-3.14-3.85-.25,0-.51.03-.77.09l-14.76,3.57-3.51,6.93C144.53,4.36,135.37,0,124.45,0h0ZM99.06,94.13l3.03-14.84,19.23-12.19-2.99,15.05-19.27,11.97h0ZM174.44,113.52c-4.51,0-8.31-1.27-11.16-3.51,4.87-7.07,10.38-12.9,12.18-14.74,1.05-1.07,1.57-2.55,1.42-4.04-.25-2.51-1.88-8.42-11.46-8.9-.93-.05-1.86-.06-2.8-.07,4.52-6.16,11.58-10.29,19.29-10.29,10.28,0,17.11,6.5,17.11,16.23,0,13.44-11.42,25.31-24.58,25.31h0ZM49.77,49.35C22.23,49.35,0,71.62,0,99.59,0,120.96,15.04,136.26,36.48,136.26c10.52,0,20.2-3.57,28.06-9.57l.81,7.19h16.93l15.91-79.6c.41-2.04-1.19-3.85-3.15-3.85-.25,0-.51.03-.77.09l-14.76,3.57-3.51,6.93c-6.15-7.31-15.32-11.67-26.24-11.67h0ZM41.72,113.52c-10.24,0-16.9-6.42-16.9-16.18,0-13.54,11.29-25.37,24.37-25.37,10.28,0,17.11,6.5,17.11,16.23,0,13.44-11.42,25.31-24.58,25.31h0Z"/>
      </g>
      <path class="cls-2" d="M226.98,50.52l-14.76,3.57-3.51,6.93c-6.15-7.31-15.32-11.67-26.24-11.67-21.39,0-39.54,13.46-46.59,32.56l-4.2-.82c5.46-15.2,17.42-27.29,32.5-32.78l8.67-43.37c.46-2.31-1.63-4.31-3.91-3.76l-14.76,3.57-3.51,6.93c-6.15-7.31-15.32-11.67-26.24-11.67-27.54,0-49.77,22.27-49.77,50.24,0,1.22.06,2.42.16,3.6,0,0,0,0,.01.01l1.74-3.45,16.67-4.03c.58-.14,1.18-.21,1.77-.21,1.64,0,3.2.55,4.48,1.52.17-13.41,11.37-25.06,24.35-25.06,10.28,0,17.11,6.5,17.11,16.23,0,13.44-11.42,25.31-24.58,25.31-6.55,0-11.62-2.64-14.44-7.08l-9.25,46.29,11.69-7.41-2.56,13.37c-3.81,1.93-7.69,4.07-11.62,6.46l-.5,2.5-.65,3.23c32.85-20.22,60.96-27.06,68.82-28.26,0-.68-15.13.08-35.95,7.46-4.85,1.72-9.99,3.77-15.34,6.28l2.81-14.2,19.37-12.27-2.75,13.72c7.29-3.32,23.77-8.44,39.14-7.66,4.62.23,7.12,1.94,7.43,5.07.02.24-.05.46-.22.63-5.16,5.27-21.99,23.61-21.78,38.44.12,8.97,6.46,10.89,6.72,11.04,0,0-2.56-3.68-2.18-8.01,4.24,1.6,8.94,2.5,14.02,2.5,10.52,0,20.2-3.57,28.06-9.57l.81,7.19h16.93l15.91-79.6c.46-2.31-1.63-4.31-3.91-3.76ZM118.33,82.15l-19.27,11.97,3.03-14.84,19.23-12.19-2.99,15.05ZM174.44,113.52c-4.51,0-8.31-1.27-11.16-3.51,4.87-7.07,10.38-12.9,12.18-14.74,1.05-1.07,1.57-2.55,1.42-4.04-.25-2.51-1.88-8.42-11.46-8.9-.93-.05-1.86-.06-2.8-.07,4.52-6.16,11.58-10.29,19.29-10.29,10.28,0,17.11,6.5,17.11,16.23,0,13.44-11.42,25.31-24.58,25.31ZM66.31,88.21c0-9.74-6.84-16.23-17.11-16.23-13.08,0-24.37,11.83-24.37,25.37,0,9.75,6.66,16.18,16.9,16.18,13.17,0,24.58-11.88,24.58-25.31ZM98.18,54.28l-15.91,79.6h-16.93l-.81-7.19c-7.86,6-17.54,9.57-28.06,9.57C15.04,136.26,0,120.96,0,99.59c0-27.97,22.23-50.24,49.77-50.24,10.92,0,20.08,4.36,26.24,11.67l3.51-6.93,14.76-3.57c2.29-.55,4.37,1.45,3.91,3.76Z"/>
    </g>
  </g>
</svg>