<?xml version="1.0" encoding="UTF-8"?>
<svg id="Layer_2" data-name="Layer 2" xmlns="http://www.w3.org/2000/svg" viewBox="0 0 150 47.47">
  <defs>
    <style>
      .cls-1 {
        fill: #000;
        stroke-width: 0px;
      }
    </style>
  </defs>
  <g id="Capa_1" data-name="Capa 1">
    <g>
      <path class="cls-1" d="M81.14,37.5h-2.86v7.47h2.86c1.09,0,1.9-.31,2.42-.92.52-.61.78-1.55.78-2.83s-.27-2.18-.8-2.8c-.53-.62-1.33-.93-2.41-.93ZM82.81,43.4c-.38.46-.93.69-1.66.69h-1.94v-5.73h1.93c.72,0,1.28.24,1.66.71.39.47.58,1.2.58,2.17s-.19,1.69-.57,2.16ZM90.69,44.97h-4.61v-7.47h4.45v.86h-3.5v2.22h3.29v.86h-3.29v2.65h3.67v.87ZM99.67,37.5h1.07v.07l-2.97,7.4h-.57l-2.98-7.4v-.07h1.07l2.15,6.06h.07l2.16-6.06ZM106.64,44.97h-4.61v-7.47h4.45v.86h-3.51v2.22h3.29v.86h-3.29v2.65h3.67v.87ZM113.71,44.97v-.07l-1.97-3.28c.3-.14.55-.3.76-.5.2-.2.36-.43.46-.69s.16-.55.16-.86c0-.48-.08-.87-.25-1.18-.17-.3-.42-.53-.77-.67-.35-.15-.79-.22-1.33-.22h-2.39v7.47h.93v-3.14h1.65l1.59,3.14h1.16ZM110.52,41.03h-1.22v-2.67h1.47c.52,0,.89.09,1.1.27.21.18.32.49.32.93,0,.3-.07.56-.21.78-.14.22-.33.39-.58.51s-.55.18-.89.18ZM119.57,37.82c-.43-.21-.94-.31-1.52-.31s-1.07.11-1.51.32c-.44.21-.78.51-1.03.89-.24.38-.37.82-.37,1.31v5.01h.95v-2.38h3.89v2.38h.95v-4.99c0-.51-.12-.95-.36-1.34s-.58-.68-1.01-.89ZM119.99,41.87h-3.89v-1.82c0-.49.18-.89.53-1.19.36-.3.83-.45,1.42-.45s1.04.15,1.4.45c.36.3.54.69.54,1.18v1.84ZM128.23,43.6h.07v.9c-.24.17-.55.3-.93.4-.38.09-.78.14-1.21.14-.8,0-1.47-.14-2-.42-.53-.28-.93-.71-1.19-1.27-.26-.57-.4-1.28-.4-2.15,0-1.24.3-2.18.88-2.82.59-.63,1.46-.95,2.61-.95.47,0,.87.04,1.2.11.33.07.67.2,1.02.39v.92h-.07c-.32-.2-.66-.34-1.01-.44-.36-.1-.73-.15-1.12-.15-.84,0-1.47.25-1.9.75-.43.5-.64,1.23-.64,2.19,0,.69.09,1.26.28,1.7.19.44.48.77.86.98.39.21.88.32,1.49.33.35,0,.7-.05,1.06-.16.36-.1.69-.26,1-.45ZM133.76,37.72c-.35-.15-.79-.22-1.33-.22h-2.39v7.47h.93v-3.14h1.65l1.59,3.14h1.16v-.07l-1.97-3.28c.3-.14.55-.3.76-.5.2-.2.36-.43.46-.69.1-.26.16-.55.16-.86,0-.48-.08-.87-.25-1.18-.17-.3-.42-.53-.77-.67ZM133.66,40.35c-.14.22-.33.39-.58.51-.25.12-.55.18-.89.18h-1.22v-2.67h1.47c.52,0,.89.09,1.1.27.21.18.32.49.32.93,0,.3-.07.56-.21.78ZM139.6,45.04c-.58,0-1.08-.1-1.52-.31-.43-.21-.77-.51-1.01-.89-.24-.39-.36-.83-.36-1.34v-4.99h.95v5.01c0,.49.18.88.54,1.18.36.3.83.45,1.4.45s1.06-.15,1.42-.45c.36-.3.53-.7.53-1.19v-4.99h.95v5.01c0,.49-.12.93-.37,1.31-.24.38-.59.68-1.02.89-.44.21-.94.32-1.51.32ZM149.86,44.97h-5.62v-.72l4.43-5.81v-.06h-4.33v-.87h5.43v.76l-4.23,5.77v.06h4.32v.87ZM110.92,28.74c0-.58-.14-1.09-.41-1.52-.27-.43-.66-.77-1.17-1-.51-.23-1.11-.35-1.79-.35-.72,0-1.34.12-1.86.35-.52.23-.93.56-1.21.98-.28.42-.43.92-.43,1.49v4.73h2.12v-1.77h2.63v1.77h2.12v-4.67ZM108.8,30.21h-2.63v-1.47c0-.35.12-.63.36-.84s.56-.31.97-.31.72.1.95.31c.23.21.34.49.34.85v1.46ZM80.1,31.64h2.63v1.77h2.12v-4.67c0-.58-.14-1.09-.41-1.52-.27-.43-.66-.77-1.17-1-.51-.23-1.11-.35-1.79-.35s-1.34.12-1.86.35c-.52.23-.93.56-1.21.98-.28.42-.43.92-.43,1.49v4.73h2.12v-1.77ZM80.1,28.74c0-.35.12-.63.36-.84s.56-.31.97-.31.72.1.95.31c.23.21.34.49.34.85v1.46h-2.63v-1.47ZM126.9,26.22c-.51-.23-1.11-.35-1.79-.35-.72,0-1.34.12-1.86.35-.52.23-.93.56-1.21.98-.28.42-.43.92-.43,1.49v4.73h2.12v-1.77h2.63v1.77h2.12v-4.67c0-.58-.14-1.09-.41-1.52-.27-.43-.66-.77-1.17-1ZM126.36,30.21h-2.63v-1.47c0-.35.12-.63.36-.84s.56-.31.97-.31.72.1.95.31c.23.21.35.49.35.85v1.46ZM98.49,14.59c-.52.23-.93.56-1.21.98-.28.42-.43.92-.43,1.49v4.73h2.12v-1.77h2.63v1.77h2.12v-4.67c0-.58-.14-1.09-.41-1.52-.27-.43-.66-.77-1.17-1-.51-.23-1.11-.35-1.79-.35s-1.34.11-1.86.34ZM101.6,17.13v1.63h-2.63v-1.64c0-.35.12-.63.36-.84.24-.21.56-.31.97-.31s.72.1.95.31c.23.21.34.49.34.85ZM80.1,8.38h2.63v1.77h2.12v-4.67c0-.58-.13-1.09-.41-1.52-.27-.43-.66-.77-1.17-1-.51-.23-1.11-.35-1.79-.35s-1.34.11-1.86.34c-.52.23-.93.56-1.21.98-.28.42-.43.92-.43,1.49v4.73h2.12v-1.77ZM80.1,5.49c0-.35.12-.63.36-.84.24-.21.56-.31.97-.31s.72.1.95.31c.23.21.34.49.34.85v1.46h-2.63v-1.47ZM87.63,10.01c-.51-.09-.91-.22-1.21-.37v-1.59h.09c.32.16.72.29,1.22.4.49.11.96.17,1.41.17.4,0,.71-.07.95-.2.23-.13.35-.32.35-.55,0-.14-.04-.25-.11-.33s-.18-.15-.32-.21h.01c-.41-.11-.75-.21-1.03-.3-.28-.09-.59-.19-.9-.29-.11-.05-.2-.08-.25-.1-.05-.02-.14-.05-.24-.09-.32-.12-.59-.33-.79-.63-.2-.3-.3-.64-.3-1.03,0-.77.27-1.35.8-1.75.53-.4,1.33-.59,2.39-.59.49,0,.98.05,1.45.14.47.09.82.21,1.04.36v1.49h-.08c-.31-.13-.7-.25-1.16-.33-.46-.09-.88-.13-1.26-.13s-.64.05-.82.16c-.18.11-.27.27-.27.5,0,.1.03.19.11.27.07.08.18.14.33.2.33.1.66.2.98.3.35.1.7.21,1.06.33.52.16.89.39,1.12.68.22.29.34.69.34,1.2,0,.81-.28,1.42-.84,1.84s-1.4.62-2.52.62c-.5,0-1.01-.05-1.52-.14ZM97.39,10.16c1.27,0,2.2-.3,2.8-.91.6-.61.89-1.57.89-2.88s-.3-2.29-.89-2.9c-.59-.62-1.53-.92-2.81-.92s-2.21.31-2.81.92-.9,1.58-.9,2.89.3,2.27.9,2.89c.6.61,1.54.92,2.81.92ZM96.18,4.67c.25-.34.66-.52,1.22-.52s.94.17,1.19.52c.24.34.36.91.36,1.68,0,.53-.05.95-.16,1.27-.1.32-.27.56-.5.71-.23.15-.53.22-.9.22-.57,0-.98-.17-1.22-.51-.25-.34-.37-.9-.37-1.69s.13-1.34.38-1.68ZM102.68,8.5c-.28-.56-.42-1.28-.42-2.17,0-1.28.33-2.23.98-2.86.65-.63,1.65-.94,3-.94.47,0,.92.05,1.34.15.42.1.79.24,1.11.43v1.6h-.08c-.32-.17-.68-.3-1.07-.39-.39-.09-.78-.14-1.18-.14-.66,0-1.15.18-1.48.53-.33.35-.49.89-.49,1.61,0,.49.07.89.22,1.21.15.32.36.56.64.72.28.16.64.24,1.08.24.36,0,.74-.05,1.14-.14.4-.09.78-.23,1.15-.4h.08v1.63c-.29.18-.65.31-1.07.41-.42.1-.88.15-1.37.15-.93,0-1.69-.13-2.28-.41-.58-.27-1.02-.69-1.3-1.25ZM112.36,10.08h-2.12V2.62h2.12v7.47ZM122.98,8.5c-.28-.56-.42-1.28-.42-2.17,0-1.28.33-2.23.98-2.86.65-.63,1.65-.94,3-.94.47,0,.92.05,1.34.15.42.1.79.24,1.11.43v1.6h-.08c-.32-.17-.68-.3-1.06-.39-.39-.09-.78-.14-1.18-.14-.66,0-1.15.18-1.48.53-.33.35-.49.89-.49,1.61,0,.49.07.89.22,1.21.15.32.36.56.64.72.28.16.64.24,1.08.24.36,0,.74-.05,1.14-.14.4-.09.78-.23,1.15-.4h.08v1.63c-.29.18-.65.31-1.07.41-.42.1-.88.15-1.37.15-.93,0-1.69-.13-2.28-.41-.58-.27-1.02-.69-1.3-1.25ZM132.66,10.08h-2.12V2.62h2.12v7.47ZM138.43,1.81h-1.25v-.07l1-1.73h2.2v.08l-1.96,1.72ZM137.88,10.16c1.27,0,2.2-.3,2.8-.91.6-.61.89-1.57.89-2.88s-.3-2.29-.89-2.9-1.53-.92-2.81-.92-2.21.31-2.81.92c-.6.62-.9,1.58-.9,2.89s.3,2.27.9,2.89,1.54.92,2.81.92ZM136.67,4.67c.25-.34.66-.52,1.22-.52s.94.17,1.19.52c.24.34.36.91.36,1.68,0,.53-.05.95-.16,1.27-.1.32-.27.56-.5.71-.23.15-.53.22-.9.22-.57,0-.98-.17-1.22-.51-.25-.34-.37-.9-.37-1.69s.13-1.34.38-1.68ZM145.19,10.08h-2.11V2.62h2.02l2.76,4.14h.07V2.62h2.07v7.47h-1.71l-3.04-4.08h-.05v4.08ZM81.48,14.25h-3.5v7.47h3.46c1.22,0,2.12-.3,2.69-.9.57-.6.85-1.54.85-2.84s-.29-2.19-.86-2.81c-.57-.62-1.45-.92-2.64-.92ZM82.48,19.58c-.25.33-.63.5-1.14.5h-1.25v-4.22h1.25c.5,0,.88.17,1.14.52.26.34.39.88.39,1.6s-.13,1.26-.38,1.6ZM88.59,15.81v1.36h3.13v1.38h-3.13v1.6h3.45v1.56h-5.56v-7.47h5.45v1.56h-3.34ZM106.99,14.58c.6-.27,1.37-.41,2.32-.41.51,0,.99.05,1.45.15.46.1.85.24,1.18.43v1.55h-.07c-.33-.16-.73-.29-1.2-.39-.47-.1-.9-.15-1.29-.15-.71,0-1.23.18-1.55.54-.32.36-.49.93-.49,1.71,0,.55.07.99.21,1.3.14.31.36.54.67.68.3.14.73.21,1.28.22.1,0,.24-.02.43-.05.18-.03.33-.07.44-.11v-1.19h-1.05v-1.29h2.96s0,3.59,0,3.59c-.3.18-.72.33-1.26.44-.53.11-1.07.17-1.61.17-.98,0-1.78-.13-2.39-.39-.61-.26-1.06-.67-1.36-1.22-.3-.55-.44-1.27-.44-2.16s.15-1.61.44-2.18c.29-.56.74-.98,1.34-1.26ZM119.53,21.71h-5.56v-7.47h5.45v1.56h-3.34v1.36h3.13v1.38h-3.13v1.6h3.45v1.56ZM123.21,21.71h-2.11v-7.47h2.02l2.76,4.14h.07v-4.14h2.07v7.47h-1.71l-3.04-4.08h-.05v4.08ZM131.42,15.87h-2.22v-1.62h6.55v1.62h-2.22v5.84h-2.11v-5.84ZM139.06,15.81v1.36h3.14v1.38h-3.14v1.6h3.45v1.56h-5.56v-7.47h5.45v1.56h-3.34ZM149.91,19.33c0,.81-.28,1.42-.84,1.84-.56.41-1.4.62-2.52.62-.5,0-1.01-.05-1.52-.14-.51-.09-.91-.22-1.21-.37v-1.59h.09c.32.16.72.29,1.22.4.49.11.96.17,1.41.17.4,0,.71-.07.95-.2.23-.13.35-.32.35-.55,0-.14-.04-.25-.11-.33s-.18-.15-.32-.21h0c-.41-.11-.75-.21-1.03-.3-.28-.09-.59-.19-.9-.29-.12-.05-.2-.08-.25-.1-.05-.02-.14-.05-.24-.09-.33-.12-.59-.33-.79-.63-.2-.3-.3-.64-.3-1.03,0-.77.27-1.35.8-1.75.53-.4,1.33-.59,2.39-.59.49,0,.98.05,1.45.14.47.09.82.21,1.04.35v1.49h-.08c-.31-.13-.7-.25-1.16-.33-.46-.09-.88-.13-1.26-.13s-.64.05-.82.16c-.18.11-.27.27-.27.5,0,.1.03.19.11.27.07.08.18.14.33.2.33.1.66.2.98.3.35.1.7.21,1.06.33.52.16.89.39,1.12.68.22.29.33.69.33,1.2ZM90.24,25.87h-3.5v7.47h3.46c1.22,0,2.12-.3,2.69-.9.57-.6.85-1.54.85-2.84s-.29-2.19-.86-2.81c-.57-.62-1.45-.92-2.64-.92ZM91.24,31.2c-.25.33-.63.5-1.14.5h-1.25v-4.22h1.25c.5,0,.88.17,1.14.52.26.34.39.88.39,1.6s-.13,1.26-.38,1.6ZM102.17,30.6c0,.57-.14,1.06-.43,1.49-.28.42-.69.75-1.21.98-.52.23-1.15.34-1.86.34s-1.28-.12-1.79-.35c-.51-.23-.9-.57-1.17-1-.27-.43-.41-.94-.41-1.52v-4.67h2.12v4.66c0,.36.11.64.34.85.23.21.55.31.95.31s.74-.1.97-.31.36-.49.36-.84v-4.67h2.12v4.73ZM114.92,33.34h-2.11v-7.47h2.02l2.76,4.14h.07v-4.14h2.07v7.47h-1.71l-3.04-4.08h-.05v4.08ZM132.49,25.87v5.84h3.15v1.62h-5.27v-7.47h2.12ZM142.42,33.34h-5.56v-7.47h5.45v1.56h-3.34v1.36h3.13v1.38h-3.13v1.6h3.45v1.56ZM147.81,31.13c0-.14-.04-.25-.11-.33-.07-.08-.18-.15-.32-.21h.01c-.41-.11-.75-.21-1.03-.3-.28-.09-.59-.19-.9-.29-.11-.05-.2-.08-.25-.1-.05-.02-.14-.05-.24-.09-.32-.12-.59-.33-.79-.63-.2-.3-.3-.64-.3-1.03,0-.77.27-1.35.8-1.75.53-.4,1.33-.59,2.39-.59.49,0,.97.05,1.45.14.47.1.82.21,1.04.36v1.49h-.08c-.31-.14-.7-.25-1.16-.33-.46-.09-.88-.13-1.26-.13s-.64.05-.82.16c-.18.11-.27.27-.27.5,0,.1.03.19.11.27.07.08.18.14.33.2.33.1.66.2.98.3.35.1.7.21,1.06.33.52.16.89.39,1.12.68s.34.69.34,1.2c0,.81-.28,1.42-.84,1.84s-1.4.62-2.52.62c-.5,0-1.01-.05-1.52-.14-.51-.09-.91-.22-1.21-.37v-1.59h.09c.32.16.72.29,1.22.4.49.11.96.17,1.41.17.4,0,.71-.07.95-.2.23-.13.35-.32.35-.55ZM119.49,2.97c-.51-.23-1.11-.35-1.79-.35s-1.34.11-1.86.34c-.52.23-.93.56-1.21.98-.28.42-.43.92-.43,1.49v4.73h2.12v-1.77h2.63v1.77h2.12v-4.67c0-.58-.14-1.09-.41-1.52-.27-.43-.66-.77-1.17-1ZM118.95,6.96h-2.63v-1.47c0-.35.12-.63.36-.84.24-.21.56-.31.97-.31s.72.1.95.31c.23.21.35.49.35.85v1.46Z"/>
      <path class="cls-1" d="M71.86,18.58l-4.67,1.13-1.11,2.19c-1.95-2.31-4.85-3.69-8.31-3.69-6.77,0-12.52,4.26-14.75,10.31l-1.33-.26c1.73-4.81,5.51-8.64,10.29-10.38l2.75-13.73c.15-.73-.52-1.37-1.24-1.19l-4.67,1.13-1.11,2.19c-1.95-2.31-4.85-3.69-8.31-3.69-8.72,0-15.76,7.05-15.76,15.91,0,.39.02.77.05,1.14,0,0,0,0,0,0l.55-1.09,5.28-1.28c.18-.04.37-.07.56-.07.52,0,1.01.17,1.42.48.05-4.25,3.6-7.93,7.71-7.93,3.25,0,5.42,2.06,5.42,5.14,0,4.25-3.61,8.01-7.78,8.01-2.07,0-3.68-.83-4.57-2.24l-2.93,14.65,3.7-2.35-.81,4.23c-1.21.61-2.44,1.29-3.68,2.04l-.16.79-.2,1.02c10.4-6.4,19.3-8.57,21.79-8.95,0-.21-4.79.03-11.38,2.36-1.54.54-3.16,1.19-4.86,1.99l.89-4.5,6.13-3.89-.87,4.34c2.31-1.05,7.52-2.67,12.39-2.42,1.46.07,2.25.61,2.35,1.61,0,.07-.02.15-.07.2-1.63,1.67-6.96,7.48-6.9,12.17.04,2.84,2.05,3.45,2.13,3.49,0,0-.81-1.17-.69-2.54,1.34.51,2.83.79,4.44.79,3.33,0,6.39-1.13,8.88-3.03l.26,2.28h5.36l5.04-25.2c.15-.73-.52-1.37-1.24-1.19ZM37.46,28.59l-6.1,3.79.96-4.7,6.09-3.86-.95,4.77ZM55.22,38.52c-1.43,0-2.63-.4-3.53-1.11,1.54-2.24,3.29-4.08,3.86-4.67.33-.34.5-.81.45-1.28-.08-.8-.59-2.67-3.63-2.82-.29-.02-.59-.02-.89-.02,1.43-1.95,3.67-3.26,6.11-3.26,3.25,0,5.42,2.06,5.42,5.14,0,4.25-3.61,8.01-7.78,8.01ZM20.99,30.51c0-3.08-2.16-5.14-5.42-5.14-4.14,0-7.71,3.74-7.71,8.03,0,3.09,2.11,5.12,5.35,5.12,4.17,0,7.78-3.76,7.78-8.01ZM31.08,19.77l-5.04,25.2h-5.36l-.26-2.28c-2.49,1.9-5.55,3.03-8.88,3.03-6.79,0-11.55-4.84-11.55-11.61,0-8.85,7.04-15.91,15.76-15.91,3.46,0,6.36,1.38,8.31,3.69l1.11-2.19,4.67-1.13c.72-.17,1.38.46,1.24,1.19Z"/>
    </g>
  </g>
</svg>